<svg version="1.1" preserveAspectRatio="none" xmlns="http://www.w3.org/2000/svg" width="500" height="500" viewBox="0 0 500 500"><rect width="100%" height="100%" fill="#EFFFE0" fill-opacity="1"/><svg viewBox="93.9854 139.9802 351.4789 250.5125" width="333" height="237.34187884393629" x="83.5px" y="131.3291px" xmlns="http://www.w3.org/2000/svg" xmlns:xlink="http://www.w3.org/1999/xlink" preserveAspectRatio="none"><defs></defs><style>.companyName {fill:#313131;fill-opacity:1;}.icon1 {fill:#313131;fill-opacity:1;}.icon2 {fill:#C2EF7E;fill-opacity:1;}.icon3 {fill:#6B7D3B;fill-opacity:1;}.icon3-str {stroke:#6B7D3B;stroke-opacity:1;}</style><g opacity="1" transform="rotate(0 93.9854 320.4927)">
<svg width="351.4789" height="70" x="93.9854" y="320.4927" version="1.1" preserveAspectRatio="none" viewBox="1.8 -33.2 218.92 43.6">
  <g transform="matrix(1 0 0 1 0 0)" class="companyName"><path id="id-D6z1nYkh10" d="M10.40-28.40L10.40-16.92Q12.56-16.92 14.02-17.18Q15.48-17.44 16.34-18Q17.20-18.56 17.58-19.44Q17.96-20.32 17.96-21.52L17.96-21.52L19.36-21.52L19.36-10.60L17.96-10.60Q17.96-11.80 17.62-12.68Q17.28-13.56 16.42-14.14Q15.56-14.72 14.10-15.02Q12.64-15.32 10.40-15.32L10.40-15.32L10.40-6.28Q10.40-4.96 10.72-4.10Q11.04-3.24 11.82-2.70Q12.60-2.16 13.88-1.94Q15.16-1.72 17.04-1.72L17.04-1.72Q19.16-1.72 20.64-2.02Q22.12-2.32 23.12-3.04Q24.12-3.76 24.72-4.94Q25.32-6.12 25.72-7.88L25.72-7.88L27.24-7.88L26.64 0L1.80 0L1.80-1.52Q3.20-1.56 4.06-1.76Q4.92-1.96 5.40-2.44Q5.88-2.92 6.04-3.80Q6.20-4.68 6.20-6.08L6.20-6.08L6.20-24.72Q6.20-26.12 6.06-26.98Q5.92-27.84 5.50-28.34Q5.08-28.84 4.28-29.02Q3.48-29.20 2.20-29.28L2.20-29.28L2.20-30.80L25.32-30.80L25.68-23.76L24.28-23.76Q24.04-25.36 23.50-26.38Q22.96-27.40 22.02-28Q21.08-28.60 19.64-28.84Q18.20-29.08 16.16-29.08L16.16-29.08L11.08-29.08Q10.40-29.08 10.40-28.40L10.40-28.40Z M44.96 0L30.56 0L30.56-1.52Q32.12-1.56 33.06-1.76Q34-1.96 34.50-2.44Q35-2.92 35.18-3.80Q35.36-4.68 35.36-6.08L35.36-6.08L35.36-24.72Q35.36-26.12 35.22-26.98Q35.08-27.84 34.66-28.34Q34.24-28.84 33.44-29.02Q32.64-29.20 31.36-29.28L31.36-29.28L31.36-30.80L43.32-30.80Q48.72-30.80 51.72-28.88Q54.72-26.96 54.72-23.48L54.72-23.48Q54.72-20.84 53.06-19.16Q51.40-17.48 47.80-16.40L47.80-16.40L47.80-16.24Q49.04-16.12 49.96-15.96Q50.88-15.80 51.60-15.58Q52.32-15.36 52.94-15.04Q53.56-14.72 54.16-14.32L54.16-14.32Q57.72-11.80 57.72-8L57.72-8Q57.72-5.88 56.54-4.06Q55.36-2.24 53.24-1.20L53.24-1.20Q52.56-0.84 51.84-0.62Q51.12-0.40 50.16-0.26Q49.20-0.12 47.94-0.06Q46.68 0 44.96 0L44.96 0ZM45.08-1.72L45.08-1.72Q52.32-1.72 52.32-7.92L52.32-7.92Q52.32-12.44 48.60-14.24L48.60-14.24Q47.96-14.52 47.36-14.72Q46.76-14.92 45.96-15.02Q45.16-15.12 44.06-15.16Q42.96-15.20 41.36-15.20L41.36-15.20L39.56-15.20L39.56-6.28Q39.56-3.84 40.84-2.78Q42.12-1.72 45.08-1.72ZM39.56-17.20L41.80-17.20Q43.04-17.20 43.88-17.24Q44.72-17.28 45.32-17.38Q45.92-17.48 46.38-17.66Q46.84-17.84 47.32-18.16L47.32-18.16Q48.60-18.96 49.14-20.08Q49.68-21.20 49.68-23L49.68-23Q49.68-26.16 48.14-27.54Q46.60-28.92 43.32-28.92L43.32-28.92L40.24-28.92Q39.56-28.92 39.56-28.24L39.56-28.24L39.56-17.20Z M90.56 0.40L90.56-3.36L90.40-3.36Q88.96-1.32 87.34-0.46Q85.72 0.40 83.52 0.40L83.52 0.40Q81.24 0.40 79.34-0.42Q77.44-1.24 76.06-2.70Q74.68-4.16 73.90-6.20Q73.12-8.24 73.12-10.64L73.12-10.64Q73.12-13 73.90-15.02Q74.68-17.04 76.06-18.50Q77.44-19.96 79.36-20.78Q81.28-21.60 83.52-21.60L83.52-21.60Q85.44-21.60 86.94-20.96Q88.44-20.32 89.84-18.92L89.84-18.92L89.84-23Q89.84-25.28 89.78-26.80Q89.72-28.32 89.60-28.88L89.60-28.88Q89.40-29.76 88.48-30.12Q87.56-30.48 85.48-30.48L85.48-30.48L85.48-31.68L93.68-33.20L93.68-10.12Q93.68-7.36 93.72-5.58Q93.76-3.80 93.96-3.04L93.96-3.04Q94.08-2.56 94.26-2.24Q94.44-1.92 94.78-1.74Q95.12-1.56 95.70-1.48Q96.28-1.40 97.20-1.40L97.20-1.40L97.20-0.04L90.56 0.40ZM89.76-9.56L89.76-12.20Q89.76-14.28 89.54-15.36Q89.32-16.44 88.68-17.24L88.68-17.24Q87.76-18.44 86.34-19.06Q84.92-19.68 83.52-19.68L83.52-19.68Q80.64-19.68 79.14-17.30Q77.64-14.92 77.64-10.84L77.64-10.84Q77.64-8.72 78.02-7Q78.40-5.28 79.14-4.06Q79.88-2.84 80.98-2.18Q82.08-1.52 83.52-1.52L83.52-1.52Q84.24-1.52 84.98-1.68Q85.72-1.84 86.42-2.18Q87.12-2.52 87.72-2.98Q88.32-3.44 88.72-4.04L88.72-4.04Q89.28-4.92 89.52-6.16Q89.76-7.40 89.76-9.56L89.76-9.56Z M117.84-4.84L119.08-3.72Q115.68 0.40 110.64 0.40L110.64 0.40Q108.28 0.40 106.36-0.38Q104.44-1.16 103.06-2.58Q101.68-4 100.92-5.98Q100.16-7.96 100.16-10.36L100.16-10.36Q100.16-12.80 100.96-14.88Q101.76-16.96 103.22-18.44Q104.68-19.92 106.70-20.76Q108.72-21.60 111.12-21.60L111.12-21.60Q115-21.60 117.12-19.50Q119.24-17.40 119.24-13.48L119.24-13.48Q119.24-12.92 119.02-12.80Q118.80-12.68 118-12.68L118-12.68L104.84-12.68Q104.76-12.36 104.72-11.90Q104.68-11.44 104.68-10.88L104.68-10.88Q104.68-8.80 105.18-7.10Q105.68-5.40 106.62-4.20Q107.56-3 108.86-2.34Q110.16-1.68 111.76-1.68L111.76-1.68Q113.44-1.68 114.88-2.42Q116.32-3.16 117.84-4.84L117.84-4.84ZM105.12-14.52L112.48-14.52Q113.28-14.52 113.76-14.56Q114.24-14.60 114.48-14.72Q114.72-14.84 114.80-15.06Q114.88-15.28 114.88-15.64L114.88-15.64Q114.88-17.48 113.70-18.58Q112.52-19.68 110.48-19.68L110.48-19.68Q106.16-19.68 105.12-14.52L105.12-14.52Z M125.36-1.40L124.56 0L123.68 0L123.68-6.88L124.68-6.88Q126.24-1.24 130.36-1.24L130.36-1.24Q131.96-1.24 132.90-2.02Q133.84-2.80 133.84-4.40L133.84-4.40Q133.84-5 133.66-5.42Q133.48-5.84 132.98-6.30Q132.48-6.76 131.58-7.36Q130.68-7.96 129.20-8.88L129.20-8.88Q127.84-9.72 126.84-10.44Q125.84-11.16 125.16-11.90Q124.48-12.64 124.14-13.48Q123.80-14.32 123.80-15.44L123.80-15.44Q123.80-16.80 124.26-17.94Q124.72-19.08 125.52-19.88Q126.32-20.68 127.40-21.14Q128.48-21.60 129.76-21.60L129.76-21.60Q130.84-21.60 132-21.26Q133.16-20.92 134.04-20.36L134.04-20.36L134.84-21.20L135.60-21.20L135.60-15.44L134.56-15.44Q133.68-17.88 132.64-18.92Q131.60-19.96 130.08-19.96L130.08-19.96Q128.72-19.96 127.90-19.24Q127.08-18.52 127.08-17.24L127.08-17.24Q127.08-16.56 127.30-16.06Q127.52-15.56 128-15.08Q128.48-14.60 129.22-14.10Q129.96-13.60 131-12.96L131-12.96Q132.72-11.88 133.94-11.04Q135.16-10.20 135.92-9.38Q136.68-8.56 137.04-7.68Q137.40-6.80 137.40-5.68L137.40-5.68Q137.40-2.84 135.56-1.22Q133.72 0.40 130.72 0.40L130.72 0.40Q127.60 0.40 125.36-1.40L125.36-1.40Z M148.40-21.60L148.40-6.36Q148.40-4.80 148.54-3.86Q148.68-2.92 149.08-2.38Q149.48-1.84 150.20-1.64Q150.92-1.44 152.12-1.40L152.12-1.40L152.12 0L140.64 0L140.64-1.40Q141.84-1.44 142.60-1.66Q143.36-1.88 143.78-2.38Q144.20-2.88 144.34-3.78Q144.48-4.68 144.48-6.08L144.48-6.08L144.48-11.20Q144.48-13.52 144.42-15.02Q144.36-16.52 144.20-17.08L144.20-17.08Q144-18 143.28-18.34Q142.56-18.68 140.56-18.68L140.56-18.68L140.56-20.08L148.40-21.60ZM143.80-29.72L143.80-29.72Q143.80-30.76 144.52-31.48Q145.24-32.20 146.28-32.20L146.28-32.20Q147.32-32.20 148.04-31.48Q148.76-30.76 148.76-29.72L148.76-29.72Q148.76-28.68 148.04-27.96Q147.32-27.24 146.28-27.24L146.28-27.24Q145.24-27.24 144.52-27.96Q143.80-28.68 143.80-29.72Z M163.88-8.60L163.88-8.60Q165.56-8.60 166.50-10.12Q167.44-11.64 167.44-14.40L167.44-14.40Q167.44-17.12 166.50-18.62Q165.56-20.12 163.84-20.12L163.84-20.12Q162.12-20.12 161.10-18.60Q160.08-17.08 160.08-14.44L160.08-14.44Q160.08-11.80 161.12-10.20Q162.16-8.60 163.88-8.60ZM161.68-3.92L161.68-3.92Q162.64-3.84 163.44-3.76Q164.24-3.68 165.02-3.60Q165.80-3.52 166.58-3.40Q167.36-3.28 168.28-3.16L168.28-3.16Q171.16-2.72 172.90-0.94Q174.64 0.84 174.64 3.52L174.64 3.52Q174.64 6.88 171.98 8.64Q169.32 10.40 164.28 10.40L164.28 10.40Q162.04 10.40 160.18 10Q158.32 9.60 157.00 8.86Q155.68 8.12 154.94 7.08Q154.20 6.04 154.20 4.80L154.20 4.80Q154.20 3.96 154.48 3.24Q154.76 2.52 155.24 1.98Q155.72 1.44 156.38 1.12Q157.04 0.80 157.76 0.80L157.76 0.80Q159.12 0.80 160.20 1.64L160.20 1.64Q159.12 1.88 158.44 2.82Q157.76 3.76 157.76 4.96L157.76 4.96Q157.76 6.72 159.50 7.68Q161.24 8.64 164.44 8.64L164.44 8.64Q171.28 8.64 171.28 4.44L171.28 4.44Q171.28 2.84 170.20 1.78Q169.12 0.72 167.64 0.52L167.64 0.52Q166.68 0.40 165.66 0.26Q164.64 0.12 163.66 0Q162.68-0.12 161.84-0.20Q161.00-0.28 160.48-0.36L160.48-0.36Q158.24-0.60 157.08-1.56Q155.92-2.52 155.92-4.20L155.92-4.20Q155.92-5.60 157.08-6.68Q158.24-7.76 160.00-8.04L160.00-8.04L160.00-8.20Q159.12-8.56 158.36-9.22Q157.60-9.88 157.06-10.72Q156.52-11.56 156.20-12.54Q155.88-13.52 155.88-14.56L155.88-14.56Q155.88-16.08 156.46-17.36Q157.04-18.64 158.10-19.58Q159.16-20.52 160.60-21.06Q162.04-21.60 163.76-21.60L163.76-21.60Q165.52-21.60 167.08-21.06Q168.64-20.52 169.76-19.48L169.76-19.48Q171.12-20.60 172.16-21.10Q173.20-21.60 174.12-21.60L174.12-21.60Q175.56-21.60 176.42-20.94Q177.28-20.28 177.28-19.16L177.28-19.16Q177.28-18.48 176.82-18.08Q176.36-17.68 175.68-17.68L175.68-17.68Q175.12-17.68 174.76-17.88Q174.40-18.08 174.10-18.30Q173.80-18.52 173.48-18.72Q173.16-18.92 172.68-18.92L172.68-18.92Q171.72-18.92 170.72-18.24L170.72-18.24Q171.68-16.76 171.68-14.52L171.68-14.52Q171.68-11.12 169.56-9.18Q167.44-7.24 163.20-6.92L163.20-6.92Q160.76-6.72 159.80-6.40Q158.84-6.08 158.84-5.24L158.84-5.24Q158.84-4.60 159.56-4.30Q160.28-4 161.68-3.92Z M185.52-11.64L185.52-6.28Q185.52-4.64 185.60-3.70Q185.68-2.76 186.02-2.26Q186.36-1.76 187.02-1.60Q187.68-1.44 188.84-1.36L188.84-1.36L188.84 0L178.36 0L178.36-1.36Q179.48-1.44 180.14-1.60Q180.80-1.76 181.16-2.24Q181.52-2.72 181.62-3.60Q181.72-4.48 181.72-6L181.72-6L181.72-11.32Q181.72-16.08 181.48-17.12L181.48-17.12Q181.36-17.64 181.18-17.98Q181.00-18.32 180.64-18.50Q180.28-18.68 179.72-18.74Q179.16-18.80 178.28-18.80L178.28-18.80L178.28-20.08L184.68-21.60L185.16-17.64L185.32-17.64Q186.84-19.52 188.88-20.56Q190.92-21.60 193.32-21.60L193.32-21.60Q195.16-21.60 196.68-21Q198.20-20.40 199.00-19.36L199.00-19.36Q199.68-18.44 199.96-16.98Q200.24-15.52 200.24-12.96L200.24-12.96L200.24-6.28Q200.24-4.64 200.34-3.70Q200.44-2.76 200.76-2.26Q201.08-1.76 201.74-1.60Q202.40-1.44 203.48-1.36L203.48-1.36L203.48 0L193.12 0L193.12-1.36Q194.24-1.40 194.90-1.58Q195.56-1.76 195.90-2.24Q196.24-2.72 196.34-3.62Q196.44-4.52 196.44-6L196.44-6L196.44-11.28Q196.44-13.56 196.20-15.12Q195.96-16.68 195.42-17.64Q194.88-18.60 194.00-19.02Q193.12-19.44 191.88-19.44L191.88-19.44Q190.08-19.44 188.58-18.50Q187.08-17.56 186.24-15.92L186.24-15.92Q186.04-15.52 185.90-15.16Q185.76-14.80 185.68-14.32Q185.60-13.84 185.56-13.22Q185.52-12.60 185.52-11.64L185.52-11.64Z M208.68-1.40L207.88 0L207.00 0L207.00-6.88L208.00-6.88Q209.56-1.24 213.68-1.24L213.68-1.24Q215.28-1.24 216.22-2.02Q217.16-2.80 217.16-4.40L217.16-4.40Q217.16-5 216.98-5.42Q216.80-5.84 216.30-6.30Q215.80-6.76 214.90-7.36Q214.00-7.96 212.52-8.88L212.52-8.88Q211.16-9.72 210.16-10.44Q209.16-11.16 208.48-11.90Q207.80-12.64 207.46-13.48Q207.12-14.32 207.12-15.44L207.12-15.44Q207.12-16.80 207.58-17.94Q208.04-19.08 208.84-19.88Q209.64-20.68 210.72-21.14Q211.80-21.60 213.08-21.60L213.08-21.60Q214.16-21.60 215.32-21.26Q216.48-20.92 217.36-20.36L217.36-20.36L218.16-21.20L218.92-21.20L218.92-15.44L217.88-15.44Q217.00-17.88 215.96-18.92Q214.92-19.96 213.40-19.96L213.40-19.96Q212.04-19.96 211.22-19.24Q210.40-18.52 210.40-17.24L210.40-17.24Q210.40-16.56 210.62-16.06Q210.84-15.56 211.32-15.08Q211.80-14.60 212.54-14.10Q213.28-13.60 214.32-12.96L214.32-12.96Q216.04-11.88 217.26-11.04Q218.48-10.20 219.24-9.38Q220.00-8.56 220.36-7.68Q220.72-6.80 220.72-5.68L220.72-5.68Q220.72-2.84 218.88-1.22Q217.04 0.40 214.04 0.40L214.04 0.40Q210.92 0.40 208.68-1.40L208.68-1.40Z"/></g>
</svg>
</g><g opacity="1" transform="rotate(0 199.4291 139.9802)">
<svg width="140.5915" height="140.5125" x="199.4291" y="139.9802" version="1.1" preserveAspectRatio="none" viewBox="20.040727615356445 20.030696868896484 160.0185546875 159.92857360839844">
  <g transform="matrix(1 0 0 1 0 0)" ><g><path d="M124.8 24C82.8 10.3 37.6 33.2 24 75.2c-13.7 42 9.3 87.1 51.3 100.8s87.1-9.3 100.8-51.3-9.3-87.1-51.3-100.7zm-51 84.2c0-11.4 9.3-20.7 20.7-20.7 11.4 0 20.7 9.3 20.7 20.7 0 11.4-9.3 20.7-20.7 20.7-11.5 0-20.7-9.3-20.7-20.7zm44.6 3.2c0-15.4-12.4-27.8-27.8-27.9S62.7 96 62.7 111.4c0 3.1.5 6.2 1.5 9.1-4.1-7.5-5.6-16.5-3.6-25.5 4.3-19.8 23.9-32.3 43.7-28 19.8 4.3 32.3 23.9 28 43.7-4.1 18.7-21.8 30.9-40.4 28.5 14.7-.7 26.5-12.8 26.5-27.8zm50.4-.9c-10.2 31.2-43.7 48.3-74.9 38.1-7-2.3-13.5-5.8-19.1-10.4 5.7 4.3 12.2 7.2 19.1 8.8 26.6 5.8 53-11 58.8-37.7s-11-53-37.7-58.8c-26.6-5.8-53 11-58.8 37.7-2.5 11.4-.8 22.7 4 32.5-7.6-13.9-9.6-30.7-4.4-46.8C66 42.6 99.5 25.5 130.7 35.7s48.3 43.6 38.1 74.8z" data-color="1" class="icon1"></path></g></g>
</svg>
</g></svg></svg>