<svg version="1.1" preserveAspectRatio="none" xmlns="http://www.w3.org/2000/svg" width="500" height="500" viewBox="0 0 500 500"><rect width="100%" height="100%" fill="#F3F3F3" fill-opacity="1"/><svg viewBox="122.1658 237.407 362.4864 164.1019" width="333" height="150.75305639052942" x="83.5px" y="174.6235px" xmlns="http://www.w3.org/2000/svg" xmlns:xlink="http://www.w3.org/1999/xlink" preserveAspectRatio="none"><defs></defs><style>.companyName {fill:#333258;fill-opacity:1;}.icon1 {fill:#333258;fill-opacity:1;}.icon2 {fill:#F36958;fill-opacity:1;}.icon3 {fill:#8C94CC;fill-opacity:1;}.icon3-str {stroke:#8C94CC;stroke-opacity:1;}</style><g opacity="1" transform="rotate(0 122.1658 341.5089)">
<svg width="362.4864" height="60" x="122.1658" y="341.5089" version="1.1" preserveAspectRatio="none" viewBox="4 -31.24 239.23999999999998 39.599999999999994">
  <g transform="matrix(1 0 0 1 0 0)" class="companyName"><path id="id-D6z1nYkh10" d="M24.44-2.40Q24.92-2.40 25.28-2.04Q25.64-1.68 25.64-1.20L25.64-1.20Q25.64-0.68 25.28-0.34Q24.92 0 24.44 0L24.44 0L5.20 0Q4.68 0 4.34-0.34Q4-0.68 4-1.20L4-1.20L4-30.04Q4-30.56 4.34-30.90Q4.68-31.24 5.20-31.24L5.20-31.24L24.44-31.24Q24.92-31.24 25.28-30.90Q25.64-30.56 25.64-30.04L25.64-30.04Q25.64-29.56 25.28-29.20Q24.92-28.84 24.44-28.84L24.44-28.84L6.40-28.84L6.40-16.84L19.64-16.84Q20.16-16.84 20.50-16.50Q20.84-16.16 20.84-15.64L20.84-15.64Q20.84-15.12 20.50-14.76Q20.16-14.40 19.64-14.40L19.64-14.40L6.40-14.40L6.40-2.40L24.44-2.40Z M44.44-31.24Q46.64-31.24 48.52-30.26Q50.40-29.28 51.50-27.56Q52.60-25.84 52.60-23.68L52.60-23.68Q52.60-21.44 51.40-19.66Q50.20-17.88 48.20-17L48.20-17Q51-16.24 52.62-14.18Q54.24-12.12 54.24-9.08L54.24-9.08Q54.24-6.44 53.06-4.38Q51.88-2.32 49.78-1.16Q47.68 0 45.04 0L45.04 0L35 0Q34.28 0 33.86-0.30Q33.44-0.60 33.44-1.20L33.44-1.20L33.44-30.04Q33.44-30.60 33.78-30.92Q34.12-31.24 34.64-31.24L34.64-31.24L44.44-31.24ZM44.44-18.04Q47-18.04 48.60-19.60Q50.20-21.16 50.20-23.68L50.20-23.68Q50.20-26.12 48.62-27.48Q47.04-28.84 44.44-28.84L44.44-28.84L35.84-28.84L35.84-18.04L44.44-18.04ZM45.04-2.40Q47-2.40 48.54-3.26Q50.08-4.12 50.96-5.64Q51.84-7.16 51.84-9.08L51.84-9.08Q51.84-10.96 50.96-12.46Q50.08-13.96 48.54-14.80Q47-15.64 45.04-15.64L45.04-15.64L35.84-15.64L35.84-2.40L45.04-2.40Z M95.72-31.24Q96.28-31.24 96.60-30.92Q96.92-30.60 96.92-30.04L96.92-30.04L96.92-10.80L96.92-10.72Q96.88-7.64 95.40-5.12Q93.92-2.60 91.38-1.18Q88.84 0.24 85.76 0.24L85.76 0.24Q82.60 0.24 80.04-1.22Q77.48-2.68 76.02-5.24Q74.56-7.80 74.56-10.96L74.56-10.96Q74.56-14.08 76.02-16.64Q77.48-19.20 80.04-20.66Q82.60-22.12 85.76-22.12L85.76-22.12Q88.60-22.12 90.90-20.90Q93.20-19.68 94.52-17.56L94.52-17.56L94.52-30.04Q94.52-30.60 94.86-30.92Q95.20-31.24 95.72-31.24L95.72-31.24ZM85.76-2Q88.24-2 90.24-3.18Q92.24-4.36 93.38-6.40Q94.52-8.44 94.52-10.96L94.52-10.96Q94.52-13.48 93.38-15.52Q92.24-17.56 90.24-18.72Q88.24-19.88 85.76-19.88L85.76-19.88Q83.28-19.88 81.28-18.72Q79.28-17.56 78.12-15.52Q76.96-13.48 76.96-10.96L76.96-10.96Q76.96-8.44 78.12-6.40Q79.28-4.36 81.28-3.18Q83.28-2 85.76-2L85.76-2Z M115.20-22.08Q118.12-22.08 120.42-20.70Q122.72-19.32 124-16.88Q125.28-14.44 125.28-11.32L125.28-11.32Q125.28-10.80 124.96-10.50Q124.64-10.20 124.12-10.20L124.12-10.20L107.36-10.20Q107.48-7.84 108.60-5.98Q109.72-4.12 111.60-3.08Q113.48-2.04 115.80-2.04L115.80-2.04Q117.36-2.04 118.94-2.58Q120.52-3.12 121.44-4L121.44-4Q121.84-4.32 122.28-4.32L122.28-4.32Q122.72-4.32 123-4.08L123-4.08Q123.44-3.72 123.44-3.24L123.44-3.24Q123.44-2.84 123.08-2.48L123.08-2.48Q121.80-1.32 119.74-0.56Q117.68 0.20 115.80 0.20L115.80 0.20Q112.64 0.20 110.18-1.22Q107.72-2.64 106.32-5.18Q104.92-7.72 104.92-10.92L104.92-10.92Q104.92-14.16 106.22-16.70Q107.52-19.24 109.86-20.66Q112.20-22.08 115.20-22.08L115.20-22.08ZM115.20-19.84Q112.08-19.84 109.94-17.76Q107.80-15.68 107.40-12.28L107.40-12.28L122.96-12.28Q122.68-15.68 120.56-17.76Q118.44-19.84 115.20-19.84L115.20-19.84Z M139.96-22.12Q145-22.12 147.60-18.52L147.60-18.52Q147.84-18.24 147.84-17.84L147.84-17.84Q147.84-17.28 147.20-16.92L147.20-16.92Q146.80-16.76 146.60-16.76L146.60-16.76Q146-16.76 145.60-17.28L145.60-17.28Q143.56-19.88 139.88-19.88L139.88-19.88Q137.44-19.88 136-18.82Q134.56-17.76 134.56-16.20L134.56-16.20Q134.56-14.60 135.94-13.64Q137.32-12.68 140.56-12.20L140.56-12.20Q144.80-11.60 146.66-9.94Q148.52-8.28 148.52-5.92L148.52-5.92Q148.52-4.08 147.34-2.68Q146.16-1.28 144.20-0.52Q142.24 0.24 139.92 0.24L139.92 0.24Q137.60 0.24 135.40-0.58Q133.20-1.40 131.76-3.08L131.76-3.08Q131.48-3.40 131.48-3.80L131.48-3.80Q131.48-4.36 132-4.72L132-4.72Q132.24-4.92 132.68-4.92L132.68-4.92Q133.24-4.92 133.60-4.48L133.60-4.48Q135.60-2.04 140.04-2.04L140.04-2.04Q143.20-2.04 144.70-3.16Q146.20-4.28 146.20-6.04L146.20-6.04Q146.20-9.20 140.08-10.08L140.08-10.08Q136.20-10.64 134.22-12.20Q132.24-13.76 132.24-15.96L132.24-15.96Q132.24-18.88 134.38-20.50Q136.52-22.12 139.96-22.12L139.96-22.12Z M156.72-20.68Q156.72-21.24 157.06-21.56Q157.40-21.88 157.92-21.88L157.92-21.88Q158.48-21.88 158.80-21.56Q159.12-21.24 159.12-20.68L159.12-20.68L159.12-1.20Q159.12-0.68 158.80-0.34Q158.48 0 157.92 0L157.92 0Q157.40 0 157.06-0.34Q156.72-0.68 156.72-1.20L156.72-1.20L156.72-20.68ZM157.92-30.20Q158.68-30.20 159.22-29.72Q159.76-29.24 159.76-28.36L159.76-28.36Q159.76-27.56 159.22-27.02Q158.68-26.48 157.88-26.48L157.88-26.48Q157.08-26.48 156.56-27.02Q156.04-27.56 156.04-28.36L156.04-28.36Q156.04-29.24 156.60-29.72Q157.16-30.20 157.92-30.20L157.92-30.20Z M179.12-22.12Q182.36-22.12 184.90-20.68Q187.44-19.24 188.86-16.70Q190.28-14.16 190.28-10.92L190.28-10.92L190.28-3.08Q190.28 0.12 188.84 2.74Q187.40 5.36 184.88 6.86Q182.36 8.36 179.28 8.36L179.28 8.36Q176.12 8.36 173.74 7.18Q171.36 6 169.76 3.96L169.76 3.96Q169.44 3.56 169.44 3.16L169.44 3.16Q169.44 2.68 169.84 2.40L169.84 2.40Q170.16 2.16 170.56 2.16L170.56 2.16Q171.20 2.16 171.60 2.68L171.60 2.68Q172.92 4.28 174.86 5.20Q176.80 6.12 179.28 6.12L179.28 6.12Q181.72 6.12 183.68 4.92Q185.64 3.72 186.76 1.62Q187.88-0.48 187.88-3.08L187.88-3.08L187.88-4.84Q186.72-2.48 184.42-1.12Q182.12 0.24 179.12 0.24L179.12 0.24Q175.88 0.24 173.34-1.18Q170.80-2.60 169.36-5.14Q167.92-7.68 167.92-10.92L167.92-10.92Q167.92-14.12 169.40-16.68Q170.88-19.24 173.44-20.68Q176.00-22.12 179.12-22.12L179.12-22.12ZM179.12-2Q181.64-2 183.64-3.14Q185.64-4.28 186.76-6.30Q187.88-8.32 187.88-10.92L187.88-10.92Q187.88-13.52 186.76-15.56Q185.64-17.60 183.64-18.74Q181.64-19.88 179.12-19.88L179.12-19.88Q176.56-19.88 174.56-18.74Q172.56-17.60 171.44-15.56Q170.32-13.52 170.32-10.92L170.32-10.92Q170.32-8.32 171.44-6.30Q172.56-4.28 174.56-3.14Q176.56-2 179.12-2L179.12-2Z M208.28-22.16Q211.20-22.16 213.50-20.96Q215.80-19.76 217.10-17.46Q218.40-15.16 218.40-11.96L218.40-11.96L218.40-1.20Q218.40-0.68 218.06-0.34Q217.72 0 217.20 0L217.20 0Q216.68 0 216.34-0.34Q216.00-0.68 216.00-1.20L216.00-1.20L216.00-11.96Q216.00-15.76 213.86-17.76Q211.72-19.76 208.28-19.76L208.28-19.76Q206.16-19.76 204.42-18.94Q202.68-18.12 201.68-16.66Q200.68-15.20 200.68-13.44L200.68-13.44L200.68-1.20Q200.68-0.68 200.36-0.34Q200.04 0 199.48 0L199.48 0Q198.96 0 198.62-0.34Q198.28-0.68 198.28-1.20L198.28-1.20L198.28-20.68Q198.28-21.24 198.62-21.56Q198.96-21.88 199.48-21.88L199.48-21.88Q200.04-21.88 200.36-21.56Q200.68-21.24 200.68-20.68L200.68-20.68L200.68-18.60Q202.04-20.28 204.00-21.22Q205.96-22.16 208.28-22.16L208.28-22.16Z M234.68-22.12Q239.72-22.12 242.32-18.52L242.32-18.52Q242.56-18.24 242.56-17.84L242.56-17.84Q242.56-17.28 241.92-16.92L241.92-16.92Q241.52-16.76 241.32-16.76L241.32-16.76Q240.72-16.76 240.32-17.28L240.32-17.28Q238.28-19.88 234.60-19.88L234.60-19.88Q232.16-19.88 230.72-18.82Q229.28-17.76 229.28-16.20L229.28-16.20Q229.28-14.60 230.66-13.64Q232.04-12.68 235.28-12.20L235.28-12.20Q239.52-11.60 241.38-9.94Q243.24-8.28 243.24-5.92L243.24-5.92Q243.24-4.08 242.06-2.68Q240.88-1.28 238.92-0.52Q236.96 0.24 234.64 0.24L234.64 0.24Q232.32 0.24 230.12-0.58Q227.92-1.40 226.48-3.08L226.48-3.08Q226.20-3.40 226.20-3.80L226.20-3.80Q226.20-4.36 226.72-4.72L226.72-4.72Q226.96-4.92 227.40-4.92L227.40-4.92Q227.96-4.92 228.32-4.48L228.32-4.48Q230.32-2.04 234.76-2.04L234.76-2.04Q237.92-2.04 239.42-3.16Q240.92-4.28 240.92-6.04L240.92-6.04Q240.92-9.20 234.80-10.08L234.80-10.08Q230.92-10.64 228.94-12.20Q226.96-13.76 226.96-15.96L226.96-15.96Q226.96-18.88 229.10-20.50Q231.24-22.12 234.68-22.12L234.68-22.12Z"/></g>
</svg>
</g><g opacity="1" transform="rotate(0 252.6609 237.407)">
<svg width="101.4962" height="64.1019" x="252.6609" y="237.407" version="1.1" preserveAspectRatio="none" viewBox="5 22 90 56.84123992919922">
  <g transform="matrix(1 0 0 1 0 0)" class="icon1"><title>tool-12</title><desc>Created with Sketch.</desc><g stroke-width="1" fill-rule="evenodd"><path d="M17.8585844,73.3370979 L83.3688384,73.3370979 L87.7859094,44.1495699 L72.5944877,53.4726628 L50.0733885,29.8883475 L26.637685,53.4855058 L12.6608432,44.4770661 L17.8585844,73.3370979 Z M88.1023974,78.8412362 L13.2571248,78.8412362 L5,32.9908468 L25.8735271,46.4438782 L50.1504464,22 L73.5045052,46.4567212 L95,33.264219 L88.1023974,78.8412362 Z"></path></g></g>
</svg>
</g></svg></svg>